<?xml version="1.0" encoding="UTF-8"?>
<!DOCTYPE svg PUBLIC "-//W3C//DTD SVG 1.1//EN" "http://www.w3.org/Graphics/SVG/1.1/DTD/svg11.dtd">
<svg xmlns="http://www.w3.org/2000/svg" version="1.1" width="250px" height="250px" style="shape-rendering:geometricPrecision; text-rendering:geometricPrecision; image-rendering:optimizeQuality; fill-rule:evenodd; clip-rule:evenodd" xmlns:xlink="http://www.w3.org/1999/xlink">
<g><path style="opacity:0.994" fill="#c69fb7" d="M 108.5,-0.5 C 119.167,-0.5 129.833,-0.5 140.5,-0.5C 201.171,11.5039 237.504,47.8372 249.5,108.5C 249.5,119.167 249.5,129.833 249.5,140.5C 237.496,201.171 201.163,237.504 140.5,249.5C 129.833,249.5 119.167,249.5 108.5,249.5C 47.8294,237.496 11.4961,201.163 -0.5,140.5C -0.5,129.833 -0.5,119.167 -0.5,108.5C 11.5039,47.8294 47.8372,11.4961 108.5,-0.5 Z"/></g>
<g><path style="opacity:1" fill="#694967" d="M 114.5,101.5 C 114.565,101.938 114.399,102.272 114,102.5C 108.85,99.7741 104.017,100.274 99.5,104C 99.7284,104.399 100.062,104.565 100.5,104.5C 99.1516,105.601 97.6516,106.601 96,107.5C 95.6012,107.272 95.4346,106.938 95.5,106.5C 100.461,98.8363 106.794,97.1697 114.5,101.5 Z"/></g>
<g><path style="opacity:1" fill="#9d7f95" d="M 114.5,101.5 C 116.762,102.345 117.429,103.678 116.5,105.5C 111.406,101.935 106.072,101.602 100.5,104.5C 100.062,104.565 99.7284,104.399 99.5,104C 104.017,100.274 108.85,99.7741 114,102.5C 114.399,102.272 114.565,101.938 114.5,101.5 Z"/></g>
<g><path style="opacity:1" fill="#543453" d="M 116.5,105.5 C 117.942,106.82 118.608,108.486 118.5,110.5C 119.873,110.343 121.207,110.51 122.5,111C 123.705,112.376 125.038,113.542 126.5,114.5C 126.5,116.5 127.5,117.5 129.5,117.5C 128.082,119.308 126.082,119.975 123.5,119.5C 121.909,118.781 120.409,117.781 119,116.5C 118.223,119.429 118.39,122.263 119.5,125C 124.823,125.499 130.156,125.666 135.5,125.5C 136.791,125.263 137.791,125.596 138.5,126.5C 131.958,128.686 125.291,129.019 118.5,127.5C 118.485,133.334 120.819,137.834 125.5,141C 124.552,141.483 123.552,141.649 122.5,141.5C 122.66,143.199 122.494,144.866 122,146.5C 121.751,143.823 120.751,141.49 119,139.5C 118.362,143.17 118.862,146.67 120.5,150C 118.193,150.271 117.026,149.105 117,146.5C 116.667,144.167 116.333,141.833 116,139.5C 115.501,143.152 115.335,146.818 115.5,150.5C 115.672,151.492 115.338,152.158 114.5,152.5C 112.348,148.142 112.014,143.642 113.5,139C 112.181,138.805 110.847,138.972 109.5,139.5C 109.5,139.167 109.5,138.833 109.5,138.5C 113.887,135.729 116.221,131.729 116.5,126.5C 113.833,126.5 111.167,126.5 108.5,126.5C 104.5,125.833 100.5,125.167 96.5,124.5C 103.141,123.317 109.807,123.317 116.5,124.5C 116.666,119.489 116.499,114.489 116,109.5C 113.816,107.129 111.65,107.296 109.5,110C 104.833,110.667 100.167,110.667 95.5,110C 92.9824,108.86 92.9824,107.694 95.5,106.5C 95.4346,106.938 95.6012,107.272 96,107.5C 97.6516,106.601 99.1516,105.601 100.5,104.5C 106.072,101.602 111.406,101.935 116.5,105.5 Z"/></g>
<g><path style="opacity:1" fill="#755774" d="M 129.5,117.5 C 127.5,117.5 126.5,116.5 126.5,114.5C 123.505,109.452 124.005,108.785 128,112.5C 129.009,114.025 129.509,115.692 129.5,117.5 Z"/></g>
<g><path style="opacity:1" fill="#644464" d="M 50.5,114.5 C 46.1667,114.5 41.8333,114.5 37.5,114.5C 37.5,122.833 37.5,131.167 37.5,139.5C 36.507,131.016 36.1736,122.349 36.5,113.5C 41.3633,113.181 46.03,113.514 50.5,114.5 Z"/></g>
<g><path style="opacity:1" fill="#523152" d="M 183.5,136.5 C 188.421,136.862 193.087,137.862 197.5,139.5C 191.833,139.5 186.167,139.5 180.5,139.5C 180.5,130.833 180.5,122.167 180.5,113.5C 186.167,113.5 191.833,113.5 197.5,113.5C 197.5,114.5 197.5,115.5 197.5,116.5C 192.833,116.5 188.167,116.5 183.5,116.5C 183.5,119.167 183.5,121.833 183.5,124.5C 187.833,124.5 192.167,124.5 196.5,124.5C 196.5,125.5 196.5,126.5 196.5,127.5C 192.167,127.5 187.833,127.5 183.5,127.5C 183.5,130.5 183.5,133.5 183.5,136.5 Z"/></g>
<g><path style="opacity:1" fill="#8a7084" d="M 129.5,117.5 C 130.404,118.209 130.737,119.209 130.5,120.5C 127.941,120.802 125.607,120.468 123.5,119.5C 126.082,119.975 128.082,119.308 129.5,117.5 Z"/></g>
<g><path style="opacity:1" fill="#8b7084" d="M 96.5,124.5 C 100.5,125.167 104.5,125.833 108.5,126.5C 103.156,126.666 97.8229,126.499 92.5,126C 93.745,125.209 95.0783,124.709 96.5,124.5 Z"/></g>
<g><path style="opacity:1" fill="#82657d" d="M 144.5,122.5 C 144.5,124.833 144.5,127.167 144.5,129.5C 143.566,128.432 143.232,127.099 143.5,125.5C 141.784,125.629 140.117,125.962 138.5,126.5C 137.791,125.596 136.791,125.263 135.5,125.5C 138.516,124.817 141.516,123.817 144.5,122.5 Z"/></g>
<g><path style="opacity:1" fill="#563555" d="M 216.5,113.5 C 221.284,112.839 225.618,113.839 229.5,116.5C 229.167,117.5 228.5,118.167 227.5,118.5C 223.564,115.949 219.731,115.949 216,118.5C 215.28,120.112 215.446,121.612 216.5,123C 219.73,124.308 223.064,125.308 226.5,126C 230.629,128.631 231.462,132.131 229,136.5C 223.103,141.798 217.27,141.632 211.5,136C 212.025,135.308 212.692,134.808 213.5,134.5C 217.552,136.636 221.719,136.97 226,135.5C 226.808,133.421 226.641,131.421 225.5,129.5C 220.871,128.903 216.705,127.237 213,124.5C 211.662,119.96 212.829,116.293 216.5,113.5 Z"/></g>
<g><path style="opacity:1" fill="#533253" d="M 79.5,113.5 C 80.8333,113.5 82.1667,113.5 83.5,113.5C 86.5341,122.1 89.8674,130.6 93.5,139C 92.0563,139.781 90.723,139.614 89.5,138.5C 88.5412,134.024 85.7078,132.357 81,133.5C 76.6515,132.895 73.8182,134.561 72.5,138.5C 71.277,139.614 69.9437,139.781 68.5,139C 72.2669,130.529 75.9336,122.029 79.5,113.5 Z"/></g>
<g><path style="opacity:1" fill="#ba95ac" d="M 80.5,117.5 C 82.7248,121.623 84.7248,125.956 86.5,130.5C 82.8333,131.833 79.1667,131.833 75.5,130.5C 77.4574,126.256 79.1241,121.923 80.5,117.5 Z"/></g>
<g><path style="opacity:1" fill="#523152" d="M 50.5,114.5 C 56.3644,116.254 57.8644,119.921 55,125.5C 53.4207,127.041 51.5873,128.208 49.5,129C 51.9554,132.078 54.2887,135.244 56.5,138.5C 55.1667,139.833 53.8333,139.833 52.5,138.5C 50.4939,135.171 48.1606,132.171 45.5,129.5C 43.7354,128.539 41.7354,128.205 39.5,128.5C 39.5,132.167 39.5,135.833 39.5,139.5C 38.8333,139.5 38.1667,139.5 37.5,139.5C 37.5,131.167 37.5,122.833 37.5,114.5C 41.8333,114.5 46.1667,114.5 50.5,114.5 Z"/></g>
<g><path style="opacity:1" fill="#927688" d="M 45.5,129.5 C 43.8333,129.5 42.1667,129.5 40.5,129.5C 40.8128,133.042 40.4794,136.375 39.5,139.5C 39.5,135.833 39.5,132.167 39.5,128.5C 41.7354,128.205 43.7354,128.539 45.5,129.5 Z"/></g>
<g><path style="opacity:1" fill="#95788b" d="M 48.5,117.5 C 45.8333,117.5 43.1667,117.5 40.5,117.5C 40.5,120.167 40.5,122.833 40.5,125.5C 43.1667,125.5 45.8333,125.5 48.5,125.5C 45.7131,126.477 42.7131,126.81 39.5,126.5C 39.5,123.167 39.5,119.833 39.5,116.5C 42.7131,116.19 45.7131,116.523 48.5,117.5 Z"/></g>
<g><path style="opacity:1" fill="#c59fb7" d="M 48.5,117.5 C 52.2253,117.78 53.392,119.78 52,123.5C 51.1841,124.823 50.0174,125.489 48.5,125.5C 45.8333,125.5 43.1667,125.5 40.5,125.5C 40.5,122.833 40.5,120.167 40.5,117.5C 43.1667,117.5 45.8333,117.5 48.5,117.5 Z"/></g>
<g><path style="opacity:1" fill="#543353" d="M 144.5,129.5 C 144.5,127.167 144.5,124.833 144.5,122.5C 148.638,113.459 155.305,111.125 164.5,115.5C 165.386,116.325 165.719,117.325 165.5,118.5C 161.661,116.833 157.661,116.333 153.5,117C 149.349,118.8 147.349,121.967 147.5,126.5C 147.311,133.168 150.478,136.501 157,136.5C 159.59,136.624 161.923,135.958 164,134.5C 165.617,135.536 165.784,136.703 164.5,138C 157.463,140.884 151.296,139.717 146,134.5C 144.991,132.975 144.491,131.308 144.5,129.5 Z"/></g>
<g><path style="opacity:1" fill="#735a71" d="M 183.5,136.5 C 188.5,136.5 193.5,136.5 198.5,136.5C 198.737,137.791 198.404,138.791 197.5,139.5C 193.087,137.862 188.421,136.862 183.5,136.5 Z"/></g>
<g><path style="opacity:1" fill="#84667f" d="M 109.5,138.5 C 109.5,138.833 109.5,139.167 109.5,139.5C 108.249,141.561 106.582,141.894 104.5,140.5C 106.139,139.678 107.805,139.011 109.5,138.5 Z"/></g>
<g><path style="opacity:1" fill="#70526e" d="M 115.5,150.5 C 117.908,155.476 119.075,160.81 119,166.5C 118.667,166.833 118.333,167.167 118,167.5C 117.298,162.359 116.131,157.359 114.5,152.5C 115.338,152.158 115.672,151.492 115.5,150.5 Z"/></g>
</svg>
